<svg width="26" height="26" viewBox="0 0 26 26" fill="none" xmlns="http://www.w3.org/2000/svg">
<rect width="26" height="26" rx="13" fill="#CE7D3B" fill-opacity="0.3"/>
<path d="M12.4014 17.1972C12.6484 17.3207 12.9487 17.2206 13.0722 16.9736C13.1957 16.7266 13.0956 16.4263 12.8486 16.3028L12.4014 17.1972ZM13.041 5.77735C13.1942 5.54759 13.1321 5.23715 12.9024 5.08397C12.6726 4.9308 12.3622 4.99289 12.209 5.22265L13.041 5.77735ZM12.625 16.75C12.8486 16.3028 12.8497 16.3034 12.8509 16.3039C12.8512 16.3041 12.8524 16.3047 12.8531 16.3051C12.8546 16.3058 12.856 16.3066 12.8575 16.3073C12.8604 16.3089 12.8632 16.3104 12.8659 16.3119C12.8715 16.3149 12.8767 16.318 12.8816 16.3209C12.8915 16.3269 12.9002 16.3327 12.9078 16.3382C12.9231 16.3491 12.9336 16.3584 12.9398 16.3644C12.9522 16.3764 12.9475 16.3751 12.9306 16.3482C12.8953 16.2925 12.8184 16.1442 12.7331 15.8243C12.5618 15.182 12.375 13.919 12.375 11.5H11.375C11.375 13.956 11.5632 15.318 11.7669 16.082C11.8691 16.4652 11.9797 16.7153 12.0851 16.8822C12.1384 16.9667 12.1923 17.0328 12.2457 17.0843C12.2725 17.1101 12.2991 17.1322 12.3253 17.151C12.3384 17.1604 12.3514 17.1689 12.3641 17.1766C12.3704 17.1805 12.3767 17.1841 12.383 17.1875C12.3861 17.1892 12.3892 17.1909 12.3922 17.1925C12.3938 17.1933 12.3953 17.1941 12.3968 17.1949C12.3976 17.1953 12.3987 17.1959 12.3991 17.1961C12.4003 17.1966 12.4014 17.1972 12.625 16.75ZM12.375 11.5C12.375 9.08627 12.5608 7.62245 12.7393 6.77488C12.8284 6.3517 12.915 6.08515 12.9741 5.93245C13.0036 5.85622 13.0261 5.80879 13.0384 5.7847C13.0445 5.77267 13.048 5.7665 13.0486 5.7655C13.0489 5.765 13.0485 5.7658 13.0472 5.7678C13.0466 5.7688 13.0458 5.77011 13.0447 5.7717C13.0442 5.7725 13.0437 5.77337 13.043 5.77431C13.0427 5.77478 13.0424 5.77527 13.0421 5.77578C13.0419 5.77603 13.0416 5.77642 13.0416 5.77655C13.0413 5.77695 13.041 5.77735 12.625 5.5C12.209 5.22265 12.2087 5.22306 12.2084 5.22348C12.2083 5.22362 12.2081 5.22404 12.2079 5.22433C12.2075 5.2249 12.2071 5.22549 12.2067 5.2261C12.2059 5.22732 12.2051 5.22861 12.2042 5.22997C12.2024 5.23268 12.2005 5.23567 12.1985 5.23895C12.1944 5.24551 12.1897 5.25322 12.1845 5.26215C12.1741 5.28001 12.1616 5.30277 12.1472 5.33102C12.1184 5.38749 12.0823 5.46605 12.0415 5.57146C11.96 5.78204 11.8591 6.10143 11.7607 6.56887C11.5642 7.50255 11.375 9.03873 11.375 11.5H12.375Z" fill="#CE7D3B"/>
<path d="M13.791 5.22265C13.6378 4.99289 13.3274 4.9308 13.0976 5.08397C12.8679 5.23715 12.8058 5.54759 12.959 5.77735L13.791 5.22265ZM13.1514 16.3028C12.9044 16.4263 12.8043 16.7266 12.9278 16.9736C13.0513 17.2206 13.3516 17.3207 13.5986 17.1972L13.1514 16.3028ZM13.375 5.5C12.959 5.77735 12.9587 5.77695 12.9584 5.77655C12.9584 5.77642 12.9581 5.77603 12.9579 5.77578C12.9576 5.77527 12.9573 5.77478 12.957 5.77431C12.9563 5.77337 12.9558 5.7725 12.9553 5.7717C12.9542 5.77011 12.9534 5.7688 12.9528 5.7678C12.9515 5.7658 12.9511 5.765 12.9514 5.7655C12.952 5.7665 12.9555 5.77267 12.9616 5.7847C12.9739 5.8088 12.9964 5.85622 13.0259 5.93245C13.085 6.08515 13.1716 6.3517 13.2607 6.77488C13.4392 7.62245 13.625 9.08627 13.625 11.5H14.625C14.625 9.03873 14.4358 7.50255 14.2393 6.56887C14.1409 6.10143 14.04 5.78204 13.9585 5.57146C13.9177 5.46605 13.8816 5.38749 13.8528 5.33102C13.8384 5.30277 13.8259 5.28001 13.8155 5.26215C13.8103 5.25322 13.8056 5.24551 13.8015 5.23895C13.7995 5.23567 13.7976 5.23268 13.7958 5.22997C13.7949 5.22861 13.7941 5.22732 13.7933 5.2261C13.7929 5.22549 13.7925 5.2249 13.7921 5.22433C13.7919 5.22404 13.7917 5.22362 13.7916 5.22348C13.7913 5.22306 13.791 5.22265 13.375 5.5ZM13.625 11.5C13.625 13.919 13.4382 15.182 13.2669 15.8243C13.1816 16.1442 13.1047 16.2925 13.0694 16.3482C13.0525 16.3751 13.0478 16.3764 13.0602 16.3644C13.0664 16.3584 13.0769 16.3491 13.0922 16.3382C13.0998 16.3327 13.1085 16.3269 13.1184 16.3209C13.1233 16.318 13.1285 16.3149 13.1341 16.3119C13.1368 16.3104 13.1396 16.3089 13.1425 16.3073C13.144 16.3066 13.1454 16.3058 13.1469 16.3051C13.1476 16.3047 13.1488 16.3041 13.1491 16.3039C13.1503 16.3034 13.1514 16.3028 13.375 16.75C13.5986 17.1972 13.5997 17.1966 13.6009 17.1961C13.6013 17.1959 13.6024 17.1953 13.6032 17.1949C13.6047 17.1941 13.6062 17.1933 13.6078 17.1925C13.6108 17.1909 13.6139 17.1892 13.617 17.1875C13.6233 17.1841 13.6296 17.1805 13.6359 17.1766C13.6486 17.1689 13.6616 17.1604 13.6747 17.151C13.7009 17.1322 13.7275 17.1101 13.7543 17.0843C13.8077 17.0328 13.8616 16.9667 13.9149 16.8822C14.0203 16.7153 14.1309 16.4652 14.2331 16.082C14.4368 15.318 14.625 13.956 14.625 11.5H13.625Z" fill="#CE7D3B"/>
<path d="M14 5.5C14 4.94772 13.5523 4.5 13 4.5C12.4477 4.5 12 4.94772 12 5.5H14ZM12 16.75C12 17.3023 12.4477 17.75 13 17.75C13.5523 17.75 14 17.3023 14 16.75H12ZM12 5.5V16.75H14V5.5H12Z" fill="#CE7D3B"/>
<path d="M13 20.5H13.0075" stroke="#CE7D3B" stroke-width="3" stroke-linecap="round" stroke-linejoin="round"/>
</svg>
